<?xml version="1.0" encoding="utf-8"?>
<!-- Generator: Adobe Illustrator 28.2.0, SVG Export Plug-In . SVG Version: 6.00 Build 0)  -->
<svg version="1.1" id="Layer_1" xmlns="http://www.w3.org/2000/svg" xmlns:xlink="http://www.w3.org/1999/xlink" x="0px" y="0px"
	 viewBox="0 0 376.5 81.1" style="enable-background:new 0 0 376.5 81.1;" xml:space="preserve">
<style type="text/css">
	.st0{fill:#FFFFFF;}
</style>
<g>
	<polyline class="st0" points="0,0 51.6,0 51.6,11 32.5,11 32.5,44.1 19,44.1 19,11 0,11 0,0 	"/>
	<path class="st0" d="M62,0h40.8c10.4,0,13.2,5.2,13.2,13.1v2.8c0,5.9-1.3,9.4-7.6,10.8v0.1c4,0.7,7.4,2.5,7.4,9.7v7.5h-13.5v-5.3
		c0-4.6-1.3-6.2-5.5-6.2H75.6v11.5H62V0 M75.6,21.7h22.4c3.7,0,5-1.5,5-4.6v-1.5c0-3.9-1.9-4.6-6.2-4.6H75.6V21.7z"/>
	<rect x="130.5" y="0" class="st0" width="13.5" height="44.1"/>
	<polyline class="st0" points="158.5,0 179.3,0 194.6,28.4 209.9,0 230.6,0 230.6,44.1 217.5,44.1 217.5,12.4 217.4,12.4 
		199.6,44.1 189.5,44.1 171.8,12.4 171.7,12.4 171.7,44.1 158.5,44.1 158.5,0 	"/>
	<path class="st0" d="M263.9,0h17.6l24.3,44.1h-15.1l-4.2-7.8h-27.4l-4,7.8H240L263.9,0 M264.2,26.8h17.3l-8.8-16.6L264.2,26.8z"/>
	<polyline class="st0" points="332.6,22 312.5,0 330,0 343.7,15.4 357.4,0 374.9,0 354.8,22 376.5,44.1 358.3,44.1 343.7,28.1 
		329.2,44.1 311,44.1 332.6,22 	"/>
</g>
<g>
	<path class="st0" d="M0,57.2c0-10.6,6-13.1,15.9-13.1H29c15.8,0,17.9,3.4,17.8,13.7H35.7v-1c0-2.6-1.9-3.3-5.2-3.3H18.3
		c-5.9,0-7,2.8-7,7.3v3.9c0,5.2,1.1,7.2,6.4,7.2h11.9c5,0,6.5-0.5,6.5-5h11.1v3.4c0,6.1-2.2,10.9-13.4,10.9H15.9C6,81.1,0,78.6,0,68
		V57.2"/>
	<polyline class="st0" points="57.6,44.5 97.3,44.5 97.3,52.9 68.7,52.9 68.7,58.7 95.7,58.7 95.7,66.2 68.7,66.2 68.7,72 97.9,72 
		97.9,80.7 57.6,80.7 57.6,44.5 	"/>
	<polyline class="st0" points="108.3,44.5 125.5,44.5 146.4,70.8 146.5,70.8 146.5,44.5 157.6,44.5 157.6,80.7 140.4,80.7 
		119.5,54.4 119.4,54.4 119.4,80.7 108.3,80.7 108.3,44.5 	"/>
	<polyline class="st0" points="166.2,44.5 208.5,44.5 208.5,53.5 192.9,53.5 192.9,80.7 181.8,80.7 181.8,53.5 166.2,53.5 
		166.2,44.5 	"/>
	<path class="st0" d="M217.1,44.5h11.1v20.9c0,4.6,1.7,6.4,6.2,6.4h11c4.6,0,6.2-1.8,6.2-6.4V44.5h11.1v23.3c0,9-4.7,13.3-14.9,13.3
		h-15.9c-10.2,0-14.8-4.3-14.8-13.3V44.5"/>
	<path class="st0" d="M273.9,44.5h33.5c8.5,0,10.9,4.3,10.9,10.8v2.3c0,4.8-1.1,7.7-6.2,8.9v0.1c3.3,0.6,6.1,2,6.1,8v6.1H307v-4.4
		c0-3.8-1.1-5-4.6-5H285v9.4h-11.1V44.5 M285,62.3h18.4c3,0,4.1-1.2,4.1-3.8v-1.2c0-3.2-1.6-3.8-5.1-3.8H285V62.3z"/>
	<polyline class="st0" points="345.3,68.1 325.3,44.5 338.7,44.5 350.9,59.3 363.1,44.5 376.5,44.5 356.4,68.1 356.4,80.7 
		345.3,80.7 345.3,68.1 	"/>
</g>
</svg>
