<?xml version="1.0" encoding="utf-8"?>
<!-- Generator: Adobe Illustrator 28.2.0, SVG Export Plug-In . SVG Version: 6.00 Build 0)  -->
<svg version="1.1" id="Layer_1" xmlns="http://www.w3.org/2000/svg" xmlns:xlink="http://www.w3.org/1999/xlink" x="0px" y="0px"
	 viewBox="0 0 90.4 14.4" style="enable-background:new 0 0 90.4 14.4;" xml:space="preserve">
<style type="text/css">
	.st0{fill:#3DC1F3;}
</style>
<g>
	<path class="st0" d="M1.7,0H3l0.1,0.5H11L11.2,0h1.3l1.7,4.9l-1.9,0.6c-0.4-0.8-0.7-1.3-0.9-1.6c-0.4-0.5-0.8-0.9-1.2-1.1
		c-0.3-0.2-0.7-0.3-1-0.3c-0.2,0-0.3,0-0.3,0.1C8.9,2.7,8.8,2.8,8.8,3.1v8c0,0.5,0,0.8,0.1,0.9c0,0.1,0.1,0.2,0.2,0.3
		c0.1,0.1,0.2,0.1,0.3,0.1c0.1,0,0.5,0,1.1,0v1.9H3.7v-1.9h0.4c0.5,0,0.7,0,0.9-0.1c0.1-0.1,0.2-0.2,0.3-0.3
		c0.1-0.1,0.1-0.4,0.1-0.9V3c0-0.2,0-0.4-0.1-0.4C5.3,2.5,5.1,2.5,5,2.5c-0.3,0-0.7,0.1-1.2,0.4C3.4,3.1,3,3.5,2.7,4
		C2.5,4.2,2.3,4.7,1.8,5.5L0,4.9L1.7,0z"/>
	<path class="st0" d="M15.4,0.5H24c0.6,0,1.2,0,1.8,0.1c0.7,0.1,1.2,0.3,1.8,0.7c0.5,0.3,0.9,0.8,1.2,1.3c0.3,0.5,0.4,1.1,0.4,1.8
		c0,1.1-0.4,1.9-1.1,2.6c-0.8,0.7-1.6,1.1-2.7,1.3l2.9,3.3l0.1,0.2c0.2,0.2,0.4,0.4,0.5,0.5c0.2,0.1,0.3,0.2,0.5,0.2
		c0.2,0,0.4,0.1,0.6,0.1h0.6v1.9h-4.5l-4.5-6h-1.2v2.8c0,0.5,0,0.8,0.1,0.9c0.1,0.1,0.1,0.2,0.3,0.3c0.1,0.1,0.4,0.1,0.7,0.1h0.6
		v1.9h-6.8v-1.9h0.6c0.3,0,0.6,0,0.7-0.1c0.1-0.1,0.2-0.2,0.3-0.3c0-0.1,0.1-0.3,0.1-0.7V3.5c0-0.3,0-0.5-0.1-0.7
		c-0.1-0.1-0.1-0.2-0.2-0.3c-0.2-0.1-0.3-0.1-0.6-0.1l-0.3,0h-0.5V0.5z M20.6,2.8v3.6h2.1c0.8,0,1.4-0.1,1.8-0.2
		c0.4-0.1,0.7-0.4,0.9-0.6c0.2-0.3,0.3-0.6,0.3-1c0-0.4-0.1-0.7-0.3-0.9c-0.2-0.3-0.5-0.5-0.8-0.6s-0.9-0.2-1.7-0.2H20.6z"/>
	<path class="st0" d="M31.7,0.5h6.8v1.9h-0.6c-0.4,0-0.6,0-0.7,0.1C37.1,2.6,37,2.7,37,2.8c-0.1,0.1-0.1,0.4-0.1,0.8v7.7
		c0,0.4,0,0.7,0.1,0.8s0.1,0.2,0.2,0.3c0.1,0.1,0.3,0.1,0.6,0.1h0.7v1.9h-6.8v-1.9h0.6c0.4,0,0.7,0,0.8-0.1c0.1-0.1,0.2-0.1,0.3-0.3
		s0.1-0.4,0.1-0.7V3.6c0-0.4,0-0.7-0.1-0.9c-0.1-0.1-0.2-0.2-0.3-0.3c-0.1-0.1-0.3-0.1-0.7-0.1h-0.6V0.5z"/>
	<path class="st0" d="M40.4,0.5h6.3L49.2,9l2.5-8.5h6.4v1.9h-0.7c-0.4,0-0.6,0.1-0.8,0.2c-0.1,0.2-0.2,0.5-0.2,0.9v7.9
		c0,0.3,0,0.6,0.1,0.6c0.1,0.1,0.1,0.2,0.2,0.3c0.1,0.1,0.3,0.1,0.6,0.1h0.8v1.9h-6.7v-1.9h0.5c0.4,0,0.6,0,0.8-0.1
		c0.1-0.1,0.2-0.2,0.3-0.3c0.1-0.1,0.1-0.4,0.1-0.7V2.9l-3.4,11.5h-1.9L44.5,3.2v8.5c0,0.2,0,0.3,0.1,0.4c0.1,0.1,0.2,0.2,0.3,0.2
		c0.1,0.1,0.3,0.1,0.6,0.1h0.7v1.9h-5.7v-1.9H41c0.4,0,0.6,0,0.7-0.1c0.1-0.1,0.2-0.2,0.3-0.3c0.1-0.1,0.1-0.4,0.1-0.8V3.5
		c0-0.4,0-0.6-0.1-0.7c-0.1-0.1-0.2-0.3-0.3-0.3c-0.1-0.1-0.3-0.1-0.6-0.1h-0.8V0.5z"/>
	<path class="st0" d="M65.1,0.5h3.1l4.2,10.8c0.2,0.6,0.4,0.9,0.6,1.1c0.2,0.1,0.5,0.2,1,0.2v1.9h-6.6v-1.9l0.4,0
		c0.4,0,0.6,0,0.8-0.1c0.1-0.1,0.2-0.2,0.2-0.4c0-0.1-0.1-0.4-0.2-0.7L68.2,10h-4.2l-0.5,1.4c-0.1,0.3-0.2,0.5-0.2,0.6
		c0,0.1,0,0.2,0.1,0.3c0.1,0.1,0.2,0.1,0.4,0.2c0.1,0,0.4,0,0.9,0v1.9h-5.4v-1.9c0.3,0,0.6,0,0.8-0.1c0.2-0.1,0.3-0.2,0.4-0.3
		s0.2-0.3,0.3-0.7L65.1,0.5z M64.7,8h2.8l-1.3-3.8L64.7,8z"/>
	<path class="st0" d="M74.9,0.5h7.5v1.9h-0.6c-0.3,0-0.5,0-0.6,0.1c-0.1,0-0.1,0.1-0.1,0.2c0,0.1,0,0.1,0.1,0.2
		c0,0.1,0.1,0.2,0.3,0.4L82.9,5l1.7-1.8C84.8,3,85,2.8,85,2.7c0-0.1,0-0.2-0.1-0.2c-0.1-0.1-0.3-0.1-0.6-0.1h-0.5V0.5h6.3v1.9
		c-0.5,0-0.8,0-1,0.1c-0.2,0.1-0.4,0.2-0.7,0.3c-0.2,0.1-0.4,0.3-0.6,0.5l-3.4,3.5l3.7,4.5c0.4,0.5,0.8,0.8,1.1,0.9
		c0.3,0.1,0.7,0.2,1.2,0.2v1.9h-7.6v-1.9h0.7c0.3,0,0.5,0,0.6-0.1c0.1,0,0.1-0.1,0.1-0.2c0-0.1-0.1-0.3-0.3-0.6L82,9.3l-2.2,2.3
		c-0.2,0.2-0.3,0.4-0.3,0.6c0,0.1,0,0.2,0.1,0.2c0.1,0.1,0.3,0.1,0.6,0.1h0.5v1.9h-6.3v-1.9c0.4,0,0.8,0,0.9-0.1
		c0.2,0,0.4-0.1,0.5-0.2c0.3-0.2,0.6-0.5,0.9-0.8l3.7-3.8L77,3.3c-0.4-0.4-0.7-0.6-0.9-0.7c-0.2-0.1-0.6-0.2-1.2-0.2V0.5z"/>
</g>
</svg>
