<?xml version="1.0" encoding="utf-8"?>
<!-- Generator: Adobe Illustrator 28.2.0, SVG Export Plug-In . SVG Version: 6.00 Build 0)  -->
<svg version="1.1" id="Layer_1" xmlns="http://www.w3.org/2000/svg" xmlns:xlink="http://www.w3.org/1999/xlink" x="0px" y="0px"
	 viewBox="0 0 79.9 84.8" style="enable-background:new 0 0 79.9 84.8;" xml:space="preserve">
<style type="text/css">
	.st0{fill:#F58220;}
	.st1{fill:#005596;}
	.st2{fill:#00ACCD;}
</style>
<g>
	<line class="st0" x1="16.1" y1="42.5" x2="16.1" y2="42.5"/>
	<path class="st1" d="M58.1,84.2c14.5-3.9,26.5-28.1,20-52.3l-19.5,5.2c5.2,19.4,3.5,36.6-8.1,39.7C38.8,80,25.2,66.8,20,47.5
		C26.5,71.7,43.5,88.1,58.1,84.2"/>
	<path class="st2" d="M25.7,6.3C14,9.4,11.5,23.6,15.7,39v0l-14,3.8v0C-3.6,23.4,4,4.6,18.5,0.7C33-3.2,49,9.4,54.2,28.7
		C50.1,13.2,37.3,3.2,25.7,6.3"/>
	<g>
		<polyline class="st2" points="1.6,44.5 4.5,43.7 9.2,47.2 9.2,47.2 8,42.8 9.9,42.2 11.6,48.4 8.6,49.2 3.9,45.6 3.9,45.7 
			5.1,50.1 3.2,50.6 1.6,44.5 		"/>
		<polyline class="st2" points="12,41.7 18.7,39.9 19.1,41.3 14.3,42.6 14.6,43.6 19.1,42.4 19.5,43.6 14.9,44.9 15.2,45.8 
			20.1,44.5 20.5,46 13.7,47.8 12,41.7 		"/>
		<path class="st2" d="M20.8,39.3l1.9-0.5l0.9,3.5c0.2,0.8,0.6,1,1.3,0.8l1.9-0.5c0.8-0.2,1-0.6,0.8-1.4l-0.9-3.5l1.9-0.5l1.1,3.9
			c0.4,1.5-0.2,2.5-1.9,2.9L25,44.8c-1.7,0.5-2.7-0.1-3.1-1.6L20.8,39.3"/>
		<polyline class="st2" points="30.2,36.8 37.4,34.9 37.8,36.4 35.1,37.1 36.4,41.7 34.5,42.2 33.2,37.6 30.6,38.3 30.2,36.8 		"/>
		<path class="st2" d="M39,34.4l5.7-1.5c1.4-0.4,2,0.2,2.3,1.3l0.1,0.4c0.2,0.8,0.2,1.4-0.6,1.8l0,0c0.6,0,1.1,0.1,1.4,1.1l0.3,1
			l-1.9,0.5l-0.2-0.7c-0.2-0.6-0.4-0.8-1-0.6l-3,0.8l0.4,1.6l-1.9,0.5L39,34.4 M41.7,37l3.1-0.8c0.5-0.1,0.6-0.4,0.5-0.8l-0.1-0.2
			c-0.1-0.5-0.4-0.6-1-0.4l-2.9,0.8L41.7,37z"/>
		<path class="st2" d="M49.1,34.1c-0.5-1.8,0.4-2.5,2.1-2.9l3-0.8c1.7-0.5,2.8-0.3,3.3,1.5l0.5,1.8c0.5,1.8-0.4,2.5-2.1,2.9l-3,0.8
			c-1.7,0.5-2.8,0.3-3.3-1.5L49.1,34.1 M51.3,34.8c0.2,0.9,0.5,1.2,1.4,0.9l2.4-0.6c0.9-0.2,1-0.6,0.7-1.5l-0.2-0.7
			c-0.2-0.8-0.5-1.2-1.5-0.9L52,32.6c-1,0.3-1.1,0.8-0.8,1.5L51.3,34.8z"/>
		<polyline class="st2" points="58.9,29.1 61.8,28.3 66.5,31.8 66.5,31.8 65.4,27.4 67.2,26.9 68.9,33 66,33.8 61.2,30.3 61.2,30.3 
			62.4,34.7 60.5,35.2 58.9,29.1 		"/>
		<polyline class="st2" points="69.3,26.3 76,24.5 76.4,26 71.6,27.2 71.9,28.2 76.4,27 76.8,28.3 72.2,29.5 72.5,30.5 77.4,29.2 
			77.8,30.6 71,32.4 69.3,26.3 		"/>
	</g>
</g>
</svg>
